# Blender v2.83.0 OBJ File: '3d paint frame.blend'
# www.blender.org
mtllib 3d paint frame.mtl
o Paint_Frame_Cube
v 2.000000 3.000000 -9.000000
v 2.000000 0.000000 -6.000000
v 2.000000 3.000000 9.000000
v 2.000000 0.000000 6.000000
v 0.000000 3.000000 -9.000000
v 0.000000 0.000000 -6.000000
v 0.000000 3.000000 9.000000
v 0.000000 0.000000 6.000000
v 0.000000 -21.000000 9.000000
v 2.000000 -21.000000 9.000000
v 0.000000 -18.000000 6.000000
v 2.000000 -18.000000 6.000000
v 2.000000 -21.000000 -9.000000
v 0.000000 -21.000000 -9.000000
v 2.000000 -18.000000 -6.000000
v 0.000000 -18.000000 -6.000000
v -0.005679 -0.000023 -5.986811
v -0.005679 -18.000023 -5.986811
v -0.005679 -0.000023 6.013189
v -0.005679 -18.000023 6.013189
v 0.294321 -18.000023 6.013189
v 0.294321 -0.000023 6.013189
v 0.294321 -18.000023 -5.986811
v 0.294321 -0.000023 -5.986811
vt 0.625000 0.500000
vt 0.875000 0.500000
vt 0.875000 0.750000
vt 0.625000 0.750000
vt 0.625000 0.500000
vt 0.875000 0.500000
vt 0.375000 0.000000
vt 0.625000 0.000000
vt 0.625000 0.250000
vt 0.375000 0.250000
vt 0.375000 0.500000
vt 0.375000 0.750000
vt 0.000000 0.000000
vt 0.625000 0.500000
vt 0.000000 0.000000
vt 0.875000 0.500000
vt 0.000000 0.000000
vt 0.000000 0.000000
vt 0.000000 0.000000
vt 0.000000 0.000000
vt 0.000000 0.000000
vt 0.375000 0.000000
vt 0.625000 0.000000
vt 0.625000 0.250000
vt 0.375000 0.250000
vt 0.625000 0.500000
vt 0.375000 0.500000
vt 0.625000 0.750000
vt 0.375000 0.750000
vt 0.625000 1.000000
vt 0.375000 1.000000
vt 0.125000 0.500000
vt 0.125000 0.750000
vt 0.875000 0.500000
vt 0.875000 0.750000
vn 0.0000 1.0000 0.0000
vn 0.0000 0.0000 -1.0000
vn -1.0000 0.0000 0.0000
vn 1.0000 0.0000 0.0000
vn 0.0000 -1.0000 0.0000
vn 0.0000 0.0000 1.0000
usemtl Material
s off
f 1/1/1 5/2/1 7/3/1 3/4/1
f 5/2/2 1/1/2 13/5/2 14/6/2
f 8/7/3 7/8/3 5/9/3 6/10/3
f 2/11/4 1/1/4 3/4/4 4/12/4
f 12/13/4 10/14/4 13/5/4 15/15/4
f 14/6/5 13/5/5 10/14/5 9/16/5
f 13/5/4 1/1/4 2/11/4 15/15/4
f 6/10/3 5/2/3 14/6/3 16/17/3
f 11/18/1 12/13/1 15/15/1 16/17/1
f 16/17/6 15/15/6 2/11/6 6/10/6
f 6/10/5 2/11/5 4/12/5 8/7/5
f 8/7/3 11/18/3 9/19/3 7/8/3
f 16/17/3 14/6/3 9/16/3 11/18/3
f 3/4/6 7/8/6 9/16/6 10/14/6
f 4/12/4 3/4/4 10/14/4 12/13/4
f 12/13/2 11/18/2 8/7/2 4/12/2
f 16/17/4 6/20/4 8/21/4 11/18/4
f 20/22/3 19/23/3 17/24/3 18/25/3
f 18/25/2 17/24/2 24/26/2 23/27/2
f 23/27/4 24/26/4 22/28/4 21/29/4
f 21/29/6 22/28/6 19/30/6 20/31/6
f 18/32/5 23/27/5 21/29/5 20/33/5
f 24/26/1 17/34/1 19/35/1 22/28/1
o Paint_Art_Image_Cube.001
v 0.394321 -0.000023 -5.986811
v 0.394321 -18.000023 -5.986811
v 0.394321 -0.000023 6.013189
v 0.394321 -18.000023 6.013189
v 0.694321 -18.000023 6.013189
v 0.694321 -0.000023 6.013189
v 0.694321 -18.000023 -5.986811
v 0.694321 -0.000023 -5.986811
vt 0.375000 0.000000
vt 0.625000 0.000000
vt 0.625000 0.250000
vt 0.375000 0.250000
vt 0.625000 0.500000
vt 0.375000 0.500000
vt 0.625000 0.750000
vt 0.375000 0.750000
vt 0.625000 1.000000
vt 0.375000 1.000000
vt 0.125000 0.500000
vt 0.125000 0.750000
vt 0.875000 0.500000
vt 0.875000 0.750000
vn -1.0000 0.0000 0.0000
vn 0.0000 0.0000 -1.0000
vn 1.0000 0.0000 0.0000
vn 0.0000 0.0000 1.0000
vn 0.0000 -1.0000 0.0000
vn 0.0000 1.0000 0.0000
usemtl Material
s off
f 28/36/7 27/37/7 25/38/7 26/39/7
f 26/39/8 25/38/8 32/40/8 31/41/8
f 31/41/9 32/40/9 30/42/9 29/43/9
f 29/43/10 30/42/10 27/44/10 28/45/10
f 26/46/11 31/41/11 29/43/11 28/47/11
f 32/40/12 25/48/12 27/49/12 30/42/12
